# xmcd
#
# Track frame offsets:
#	150
#	21825
#	48075
#	73800
#	111675
#	142575
#	166600
#	190125
#
# Disc length: 2932
#
# Revision: 3
# Processed by: cddbd v1.5.1PL0 Copyright (c) Steve Scherf et al.
# Submitted via: FreeRIP 1.20
# Normalized: r2:TDELIM( - )
#
DISCID=650b7208
DTITLE=Various Artist - Dance Pool Vol. 2 [CD 1/2)
DYEAR=1900
DGENRE=
TTITLE0=P.M. Sampson - How I miss you so (Airplay Clubmix)
TTITLE1=Dana Dawson - Romantic World (Aio-Aio Mix)
TTITLE2=Wig Wam Bam - What is love (Clubmix)
TTITLE3=Anna Mwale - Get free (The Eden Upstairs Remix)
TTITLE4=Ben Liebrand feat. Tony Scott - Move to the Bigband (Clubmix)
TTITLE5=Nayobe - I'll be around (Extended Clubmix)
TTITLE6=Honeychile - Steppin' Stone (12" Dub)
TTITLE7=Tonya Monique and the Beat Authority - Riders on the Storm (Ride 'N' Dance Mix)
EXTD=
EXTT0=
EXTT1=
EXTT2=
EXTT3=
EXTT4=
EXTT5=
EXTT6=
EXTT7=
PLAYORDER=
